<svg width="24" height="24" viewBox="0 0 24 24" fill="none" xmlns="http://www.w3.org/2000/svg">
<path d="M8.77406 21.1496C7.11654 21.1496 5.71475 20.5766 4.56868 19.4306C3.42263 18.2845 2.84961 16.8827 2.84961 15.2252V8.77518C2.84961 7.11866 3.42263 5.71613 4.56868 4.56758C5.71475 3.41901 7.11654 2.84473 8.77406 2.84473H15.2241C16.8806 2.84473 18.2831 3.41901 19.4317 4.56758C20.5802 5.71613 21.1545 7.11866 21.1545 8.77518V15.2252C21.1545 16.8827 20.5802 18.2845 19.4317 19.4306C18.2831 20.5766 16.8806 21.1496 15.2241 21.1496H8.77406ZM10.9621 15.923L17.0099 9.87518L15.8871 8.75235L10.9621 13.6774L8.53711 11.2524L7.41428 12.3752L10.9621 15.923ZM8.77406 19.4464H15.2241C16.3964 19.4464 17.393 19.0359 18.2139 18.215C19.0348 17.3941 19.4453 16.3975 19.4453 15.2252V8.77518C19.4453 7.60286 19.0348 6.60624 18.2139 5.78533C17.393 4.96443 16.3964 4.55398 15.2241 4.55398H8.77406C7.60174 4.55398 6.60513 4.96443 5.78421 5.78533C4.96331 6.60624 4.55286 7.60286 4.55286 8.77518V15.2252C4.55286 16.3975 4.96331 17.3941 5.78421 18.215C6.60513 19.0359 7.60174 19.4464 8.77406 19.4464Z" fill="#30D158"/>
</svg>
