<svg width="24" height="24" viewBox="0 0 24 24" fill="none" xmlns="http://www.w3.org/2000/svg">
<path d="M8.02532 20.2147C7.56534 20.2147 7.16646 20.0453 6.82869 19.7063C6.49093 19.3674 6.32204 18.9671 6.32204 18.5055V15.9577H9.47587V12.7827C8.85449 12.8207 8.23012 12.7262 7.60277 12.4992C6.9754 12.2723 6.41626 11.9203 5.92534 11.4434V10.0136H4.69759L1.38672 6.6968C2.00665 6.13013 2.73528 5.66365 3.57259 5.29735C4.40991 4.93105 5.2639 4.7479 6.13457 4.7479C6.61464 4.7479 7.16853 4.82606 7.79624 4.9824C8.42396 5.13875 8.98384 5.38594 9.47587 5.72397V3.77832H21.1558V17.4343C21.1558 18.2062 20.8853 18.8625 20.3444 19.4034C19.8036 19.9443 19.1472 20.2147 18.3753 20.2147H8.02532ZM11.1791 15.9577H17.3041V17.4343C17.3041 17.7557 17.4029 18.0146 17.6005 18.2109C17.7981 18.4073 18.056 18.5055 18.3742 18.5055C18.6923 18.5055 18.9506 18.4073 19.149 18.2109C19.3473 18.0146 19.4465 17.7557 19.4465 17.4343V5.48757H11.1791V6.92452L17.0487 12.7941V13.9229H15.9259L12.8596 10.8506L12.4585 11.3267C12.2533 11.5634 12.0508 11.7445 11.851 11.8699C11.6513 11.9954 11.4273 12.1151 11.1791 12.2289V15.9577ZM5.39652 8.4479H7.48944V10.6848C7.76481 10.8642 8.038 10.9987 8.30902 11.0884C8.58004 11.1781 8.85522 11.2229 9.13457 11.2229C9.54325 11.2229 9.96128 11.1104 10.3886 10.8854C10.816 10.6604 11.1245 10.4378 11.314 10.2177L11.7248 9.73377L10.0297 8.03267C9.49552 7.49934 8.89859 7.0795 8.23889 6.77317C7.57918 6.46682 6.87774 6.31365 6.13457 6.31365C5.69254 6.31365 5.29416 6.36682 4.93944 6.47317C4.58474 6.5795 4.2217 6.72235 3.85032 6.9017L5.39652 8.4479ZM15.6009 17.5234H8.02532V18.5055H15.9509C15.8469 18.4135 15.7625 18.2809 15.6979 18.1079C15.6332 17.9349 15.6009 17.7401 15.6009 17.5234Z" fill="#30D158"/>
</svg>
