<svg width="24" height="24" viewBox="0 0 24 24" fill="none" xmlns="http://www.w3.org/2000/svg">
<path d="M17.8075 21.2874H6.71293V8.23343L13.6059 1.17383L14.8027 2.1842C14.9204 2.28585 15.0126 2.42859 15.0792 2.6124C15.1459 2.79622 15.1792 3.0016 15.1792 3.22853V3.45408L14.0765 8.23343H21.1441C21.6446 8.23343 22.086 8.42368 22.4684 8.80418C22.8507 9.18466 23.0419 9.62569 23.0419 10.1273V11.857C23.0419 11.9836 23.044 12.1153 23.0483 12.2524C23.0525 12.3894 23.0297 12.5169 22.98 12.6349L19.8521 19.9039C19.6872 20.2912 19.4109 20.6186 19.023 20.8861C18.635 21.1536 18.2299 21.2874 17.8075 21.2874ZM8.53304 19.3936H18.0242L21.1361 12.043V10.1273H11.7879L13.0615 4.38903L8.53304 9.10083V19.3936ZM6.71293 8.23343V10.1273H3.64971V19.3936H6.71293V21.2874H1.75586V8.23343H6.71296H6.71293Z" fill="#30D158"/>
</svg>
