<svg width="40" height="40" viewBox="0 0 40 40" fill="none" xmlns="http://www.w3.org/2000/svg">
<rect x="1" y="1" width="38" height="38" rx="19" fill="#64D2FF" fill-opacity="0.1"/>
<g clip-path="url(#clip0_913_3038)">
<path d="M8.86328 20.8156V19.1841H14.8008V20.8156H8.86328ZM15.728 16.8726L13.6323 14.777L14.778 13.6313L16.8736 15.727L15.728 16.8726ZM19.185 14.7998V8.8623H20.8165V14.7998H19.185ZM24.2736 16.8726L23.128 15.727L25.2236 13.6313L26.3693 14.777L24.2736 16.8726ZM25.2008 20.8156V19.1841H31.1383V20.8156H25.2008ZM20.0018 22.6156C19.2729 22.6156 18.6545 22.362 18.1467 21.8549C17.6389 21.3478 17.385 20.7298 17.385 20.0009C17.385 19.2719 17.6386 18.6535 18.1457 18.1457C18.6527 17.6379 19.2708 17.3841 19.9997 17.3841C20.7287 17.3841 21.3471 17.6376 21.8549 18.1447C22.3626 18.6518 22.6165 19.2698 22.6165 19.9988C22.6165 20.7277 22.363 21.3461 21.8559 21.8539C21.3488 22.3617 20.7308 22.6156 20.0018 22.6156ZM25.3486 26.4933L23.128 24.2726L24.2736 23.127L26.4943 25.3476L25.3486 26.4933ZM14.653 26.4933L13.5073 25.3476L15.728 23.127L16.8736 24.2726L14.653 26.4933ZM19.185 31.1373V25.1998H20.8165V31.1373H19.185Z" fill="#64D2FF"/>
</g>
<rect x="1" y="1" width="38" height="38" rx="19" stroke="url(#paint0_linear_913_3038)" stroke-width="2"/>
<defs>
<linearGradient id="paint0_linear_913_3038" x1="20" y1="0" x2="20" y2="40" gradientUnits="userSpaceOnUse">
<stop stop-color="#64D2FF"/>
<stop offset="1" stop-color="#64D2FF" stop-opacity="0"/>
</linearGradient>
<clipPath id="clip0_913_3038">
<rect width="24" height="24" fill="white" transform="translate(8 8)"/>
</clipPath>
</defs>
</svg>