<svg width="48" height="48" viewBox="0 0 48 48" fill="none" xmlns="http://www.w3.org/2000/svg">
<path d="M23.9997 44.2746C21.1915 44.2746 18.5553 43.7436 16.0909 42.6817C13.6264 41.6197 11.4803 40.1748 9.65236 38.3469C7.82446 36.519 6.37954 34.3728 5.31761 31.9084C4.25561 29.444 3.72461 26.8077 3.72461 23.9996C3.72461 21.1931 4.25561 18.5572 5.31761 16.092C6.37954 13.6268 7.82446 11.4802 9.65236 9.65231C11.4803 7.82441 13.6264 6.37949 16.0909 5.31756C18.5553 4.25559 21.1915 3.72461 23.9997 3.72461C26.8062 3.72461 29.4421 4.25559 31.9073 5.31756C34.3725 6.37949 36.5191 7.82441 38.347 9.65231C40.1749 11.4802 41.6198 13.6268 42.6817 16.092C43.7437 18.5572 44.2747 21.1947 44.2747 24.0045V26.6496C44.2747 28.588 43.6004 30.2029 42.2519 31.4942C40.9033 32.7855 39.2431 33.4311 37.2714 33.4311C36.0403 33.4311 34.8853 33.1335 33.8063 32.5382C32.7272 31.9429 31.9084 31.1079 31.3497 30.0333C30.4989 31.1905 29.4256 32.0462 28.1296 32.6002C26.8335 33.1541 25.4569 33.4311 23.9997 33.4311C21.3651 33.4311 19.1262 32.5193 17.283 30.6957C15.4398 28.872 14.5182 26.6381 14.5182 23.994C14.5182 21.3579 15.4395 19.1112 17.2821 17.254C19.1248 15.3967 21.363 14.4681 23.9968 14.4681C26.6386 14.4681 28.8797 15.3947 30.7203 17.248C32.5609 19.1012 33.4812 21.3518 33.4812 23.9996V26.5651C33.4812 27.5822 33.8502 28.437 34.5883 29.1295C35.3263 29.8219 36.2207 30.1681 37.2714 30.1681C38.2888 30.1681 39.1645 29.8219 39.8986 29.1295C40.6326 28.437 40.9997 27.5822 40.9997 26.5651V23.9996C40.9997 19.2583 39.3517 15.2396 36.0557 11.9436C32.7596 8.64761 28.739 6.99961 23.9937 6.99961C19.2643 6.99961 15.2497 8.64961 11.9497 11.9496C8.64966 15.2496 6.99966 19.2663 6.99966 23.9996C6.99966 28.7409 8.64766 32.7596 11.9437 36.0556C15.2397 39.3516 19.2584 40.9996 23.9997 40.9996H34.6997V44.2746H23.9997ZM24.0025 30.1681C25.7274 30.1681 27.1946 29.5716 28.404 28.3786C29.6134 27.1856 30.2182 25.7278 30.2182 24.0053C30.2182 22.2493 29.6125 20.7647 28.4012 19.5513C27.1899 18.3378 25.7218 17.7311 23.9969 17.7311C22.2719 17.7311 20.8047 18.3378 19.5953 19.5513C18.3859 20.7647 17.7812 22.2493 17.7812 24.0053C17.7812 25.7278 18.3868 27.1856 19.5981 28.3786C20.8094 29.5716 22.2775 30.1681 24.0025 30.1681Z" fill="#F2F2F2"/>
</svg>