<svg width="24" height="24" viewBox="0 0 24 24" fill="none" xmlns="http://www.w3.org/2000/svg">
<path d="M20.4985 22.6606L13.6697 15.8379H12.8159V18.4993C13.1484 18.6779 13.4066 18.9244 13.5903 19.2387C13.774 19.553 13.8659 19.8955 13.8659 20.2661C13.8659 20.785 13.6832 21.2267 13.3177 21.5912C12.9522 21.9556 12.5113 22.1379 11.9949 22.1379C11.4785 22.1379 11.0393 21.9556 10.6773 21.5912C10.3154 21.2267 10.1344 20.785 10.1344 20.2661C10.1344 19.8999 10.2261 19.5595 10.4094 19.245C10.5928 18.9304 10.8511 18.6859 11.1844 18.5112V15.8379H7.55017C7.09782 15.8379 6.71181 15.678 6.39214 15.3584C6.07249 15.0387 5.91267 14.6527 5.91267 14.2004V11.5172C5.57934 11.3553 5.321 11.1223 5.13767 10.8183C4.95434 10.5143 4.86267 10.175 4.86267 9.80036C4.86267 9.43441 4.95515 9.09546 5.14012 8.78351C5.32509 8.47156 5.57989 8.2366 5.90452 8.07861L1.33984 3.50199L2.45669 2.38514L21.6154 21.5438L20.4985 22.6606ZM17.6056 15.2884L16.3127 14.0014V11.4629H15.4002V7.93461H19.1377V11.6661H18.0877V14.2004C18.0877 14.413 18.0428 14.6142 17.9532 14.8039C17.8635 14.9936 17.7476 15.1551 17.6056 15.2884ZM7.55017 14.2004H11.1844V13.3525L8.45017 10.6243C8.36684 10.8243 8.246 11.0003 8.08767 11.1523C7.92934 11.3043 7.75017 11.4239 7.55017 11.5112V14.2004ZM12.8159 10.5107L11.1844 8.87319V5.70036H9.38767L9.22624 5.54491L12.0002 1.79004L14.8877 5.70036H12.8159V10.5107Z" fill="#FF375F"/>
</svg>