<svg width="24" height="24" viewBox="0 0 24 24" fill="none" xmlns="http://www.w3.org/2000/svg">
<path d="M16.3998 21.7937L15.2003 20.6003L17.3003 18.5003L15.2003 16.4003L16.3998 15.2008L18.4998 17.3008L20.5998 15.2008L21.7933 16.4003L19.7183 18.5003L21.7933 20.6003L20.5998 21.7937L18.4998 19.7187L16.3998 21.7937ZM7.67205 22.2035C7.42767 22.2035 7.22364 22.1217 7.05995 21.958C6.89629 21.7943 6.81445 21.5923 6.81445 21.3519V4.24864C6.81445 4.00824 6.89629 3.8052 7.05995 3.63952C7.22364 3.47385 7.42767 3.39102 7.67205 3.39102H9.89815V1.79102H14.1014V3.39102H16.3335C16.5739 3.39102 16.7759 3.47385 16.9396 3.63952C17.1033 3.8052 17.1851 4.00824 17.1851 4.24864V13.2519C16.8659 13.3193 16.5665 13.4153 16.287 13.5399C16.0075 13.6646 15.7371 13.8162 15.4759 13.9948V5.10027H8.5237V20.5003H13.4503C13.575 20.8234 13.7284 21.1248 13.9107 21.4043C14.0929 21.6839 14.302 21.9503 14.5378 22.2035H7.67205Z" fill="#FF375F"/>
</svg>