<svg width="24" height="24" viewBox="0 0 24 24" fill="none" xmlns="http://www.w3.org/2000/svg">
<path d="M6.05404 3.17383H17.1526V16.2318L10.2597 23.2875L9.06017 22.2772C8.9422 22.1756 8.8504 22.0328 8.78477 21.8488C8.71914 21.6649 8.68632 21.4609 8.68632 21.2367V21.0072L9.78504 16.2318H2.71744C2.21588 16.2318 1.77485 16.0406 1.39437 15.6583C1.01387 15.2759 0.823618 14.8345 0.823618 14.334V12.6082C0.823618 12.4817 0.820843 12.3499 0.815293 12.2129C0.809726 12.0759 0.831826 11.947 0.881593 11.8264L4.01347 4.55735C4.17673 4.17027 4.45283 3.84291 4.84177 3.57528C5.23072 3.30764 5.63481 3.17383 6.05404 3.17383ZM15.3285 5.07165H5.83739L2.72942 12.4222V14.334H12.0736L10.8001 20.0722L15.3285 15.3604V5.07165ZM17.1526 16.2318V14.334H20.2118V5.07165H17.1526V3.17383H22.1097V16.2318H17.1526Z" fill="#FF375F"/>
</svg>
