<svg width="24" height="24" viewBox="0 0 24 24" fill="none" xmlns="http://www.w3.org/2000/svg">
<path d="M12.0037 15.7498C13.1851 15.7498 14.1883 15.3363 15.0133 14.5094C15.8383 13.6824 16.2508 12.6782 16.2508 11.4969C16.2508 10.3155 15.8373 9.3123 15.0103 8.4873C14.1834 7.6623 13.1792 7.2498 11.9978 7.2498C10.8165 7.2498 9.81328 7.66329 8.98828 8.49026C8.16328 9.31721 7.75078 10.3214 7.75078 11.5028C7.75078 12.6841 8.16426 13.6873 8.99123 14.5123C9.81818 15.3373 10.8223 15.7498 12.0037 15.7498ZM11.9963 14.2042C11.2439 14.2042 10.6058 13.9408 10.082 13.4141C9.5583 12.8874 9.29643 12.2478 9.29643 11.4953C9.29643 10.7429 9.55979 10.1048 10.0865 9.58105C10.6132 9.05732 11.2528 8.79545 12.0053 8.79545C12.7577 8.79545 13.3958 9.05881 13.9195 9.58553C14.4433 10.1122 14.7051 10.7518 14.7051 11.5043C14.7051 12.2567 14.4418 12.8948 13.9151 13.4186C13.3883 13.9423 12.7488 14.2042 11.9963 14.2042ZM12.0008 19.1373C9.53556 19.1373 7.30766 18.4317 5.31708 17.0205C3.3265 15.6092 1.8419 13.769 0.863281 11.4998C1.8419 9.2306 3.3265 7.39039 5.31708 5.97915C7.30766 4.56792 9.53556 3.8623 12.0008 3.8623C14.466 3.8623 16.6939 4.56792 18.6845 5.97915C20.6751 7.39039 22.1597 9.2306 23.1383 11.4998C22.1597 13.769 20.6751 15.6092 18.6845 17.0205C16.6939 18.4317 14.466 19.1373 12.0008 19.1373ZM11.9971 17.4998C14.0137 17.4998 15.8665 16.954 17.5554 15.8623C19.2444 14.7706 20.5305 13.3165 21.4138 11.4998C20.5305 9.68314 19.2456 8.22897 17.5591 7.1373C15.8726 6.04564 14.0211 5.4998 12.0045 5.4998C9.98784 5.4998 8.13506 6.04564 6.44613 7.1373C4.7572 8.22897 3.46273 9.68314 2.56273 11.4998C3.46273 13.3165 4.75597 14.7706 6.44246 15.8623C8.12892 16.954 9.98047 17.4998 11.9971 17.4998Z" fill="#F2F2F2"/>
</svg>
