<svg width="24" height="24" viewBox="0 0 24 24" fill="none" xmlns="http://www.w3.org/2000/svg">
<path d="M13.2804 9.9745V8.94414C13.7526 8.74379 14.2356 8.59353 14.7293 8.49335C15.223 8.39318 15.7418 8.34309 16.2856 8.34309C16.6577 8.34309 17.0226 8.37171 17.3804 8.42895C17.7381 8.4862 18.0887 8.55775 18.4322 8.64361V9.58812C18.0887 9.45932 17.7417 9.36272 17.3911 9.29833C17.0405 9.23393 16.672 9.20173 16.2856 9.20173C15.7418 9.20173 15.2195 9.2697 14.7186 9.40566C14.2177 9.54161 13.7383 9.73122 13.2804 9.9745ZM13.2804 14.697V13.6452C13.7526 13.452 14.2356 13.3071 14.7293 13.2105C15.223 13.1139 15.7418 13.0656 16.2856 13.0656C16.6577 13.0656 17.0226 13.0942 17.3804 13.1515C17.7381 13.2087 18.0887 13.2803 18.4322 13.3661V14.3106C18.0887 14.1818 17.7417 14.0852 17.3911 14.0208C17.0405 13.9564 16.672 13.9242 16.2856 13.9242C15.7418 13.9242 15.2195 13.9886 14.7186 14.1174C14.2177 14.2462 13.7383 14.4394 13.2804 14.697ZM13.2804 12.3358V11.3054C13.7526 11.105 14.2356 10.9548 14.7293 10.8546C15.223 10.7544 15.7418 10.7043 16.2856 10.7043C16.6577 10.7043 17.0226 10.733 17.3804 10.7902C17.7381 10.8475 18.0887 10.919 18.4322 11.0049V11.9494C18.0887 11.8206 17.7417 11.724 17.3911 11.6596C17.0405 11.5952 16.672 11.563 16.2856 11.563C15.7418 11.563 15.2195 11.631 14.7186 11.7669C14.2177 11.9029 13.7383 12.0925 13.2804 12.3358ZM6.58299 15.8562C7.34955 15.8562 8.09573 15.9456 8.82152 16.1245C9.54731 16.3034 10.2608 16.5717 10.962 16.9295V7.76351C10.3181 7.33419 9.61957 7.00147 8.86656 6.76534C8.11356 6.52921 7.35237 6.41115 6.58299 6.41115C6.03918 6.41115 5.50611 6.47913 4.98377 6.61508C4.46143 6.75103 3.93552 6.91918 3.40602 7.11953V16.4358C3.84965 16.2354 4.3541 16.0887 4.91937 15.9957C5.48464 15.9027 6.03918 15.8562 6.58299 15.8562ZM12.25 16.9295C12.9655 16.5717 13.6668 16.3034 14.3537 16.1245C15.0406 15.9456 15.7704 15.8562 16.5432 15.8562C17.087 15.8562 17.6487 15.8991 18.2283 15.985C18.8079 16.0708 19.3052 16.1853 19.7202 16.3284V7.11953C19.2336 6.87283 18.7197 6.69309 18.1784 6.5803C17.6372 6.46754 17.0921 6.41115 16.5432 6.41115C15.7704 6.41115 15.0227 6.52921 14.3 6.76534C13.5773 7.00147 12.894 7.33419 12.25 7.76351V16.9295ZM11.6172 19C10.8833 18.4596 10.0876 18.0376 9.2301 17.734C8.37258 17.4304 7.49021 17.2785 6.58299 17.2785C6.0683 17.2785 5.56281 17.3438 5.0665 17.4743C4.57021 17.6048 4.07504 17.7597 3.58101 17.9389C3.21622 18.1168 2.86152 18.0968 2.5169 17.8788C2.1723 17.6608 2 17.344 2 16.9285V6.99492C2 6.74604 2.05693 6.51711 2.17078 6.30811C2.28465 6.09911 2.45545 5.93699 2.68318 5.82176C3.29106 5.53726 3.92153 5.32918 4.57459 5.19751C5.22764 5.06584 5.89359 5 6.57245 5C7.47762 5 8.3568 5.12249 9.20999 5.36748C10.0632 5.61247 10.8619 5.98883 11.606 6.49654C12.3359 5.99225 13.1202 5.61675 13.9591 5.37005C14.798 5.12335 15.6629 5 16.5537 5C17.2277 5 17.8888 5.06712 18.5372 5.20135C19.1855 5.33558 19.8137 5.54239 20.4215 5.82176C20.6493 5.93699 20.8236 6.09911 20.9447 6.30811C21.0657 6.51711 21.1262 6.74604 21.1262 6.99492V16.985C21.1262 17.4151 20.9472 17.7369 20.5893 17.9502C20.2314 18.1635 19.8762 18.1597 19.5237 17.9389C19.044 17.7453 18.556 17.5869 18.0597 17.4636C17.5634 17.3402 17.0579 17.2785 16.5432 17.2785C15.6409 17.2785 14.7769 17.4348 13.9513 17.7473C13.1257 18.0598 12.3477 18.4774 11.6172 19Z" fill="#F2F2F2"/>
</svg>
