<svg width="24" height="24" viewBox="0 0 24 24" fill="none" xmlns="http://www.w3.org/2000/svg">
<path d="M4.06695 16V9.67563H2V8H5.73863V16H4.06695ZM8.49767 16V12.3767C8.49767 12.0294 8.60539 11.7481 8.82083 11.5326C9.03628 11.3172 9.31855 11.2095 9.66764 11.2095H12.8457V9.67563H8.49767V8H13.3571C13.6971 8 13.9761 8.10772 14.1942 8.32317C14.4122 8.53861 14.5213 8.82091 14.5213 9.17004V11.6205C14.5213 11.9696 14.4124 12.2519 14.1948 12.4674C13.9771 12.6828 13.6969 12.7905 13.3541 12.7905H10.1733V14.3244H14.5213V16H8.49767ZM16.7611 16V14.3244H21.1092V12.7905H18.0787V11.2095H21.1092V9.67563H16.7611V8H21.6193C21.9654 8 22.2462 8.10772 22.4616 8.32317C22.6771 8.53861 22.7848 8.81996 22.7848 9.16721V14.8328C22.7848 15.18 22.6771 15.4614 22.4616 15.6768C22.2462 15.8923 21.9654 16 21.6193 16H16.7611Z" fill="#F2F2F2"/>
</svg>
