<svg width="24" height="24" viewBox="0 0 24 24" fill="none" xmlns="http://www.w3.org/2000/svg">
<path d="M10.75 21.9498C9.55 21.7998 8.42917 21.4415 7.3875 20.8748C6.34583 20.3081 5.44583 19.5873 4.6875 18.7123C3.92917 17.8373 3.33333 16.829 2.9 15.6873C2.46667 14.5456 2.25 13.3165 2.25 11.9998C2.25 10.5331 2.59583 9.13314 3.2875 7.7998C3.97917 6.46647 4.90833 5.28314 6.075 4.2498H3.025V2.7498H8.75V8.4748H7.25V5.2498C6.18333 6.0998 5.33333 7.1123 4.7 8.2873C4.06667 9.4623 3.75 10.6998 3.75 11.9998C3.75 14.1998 4.41667 16.079 5.75 17.6373C7.08333 19.1956 8.75 20.1248 10.75 20.4248V21.9498ZM10.575 16.2498L6.7 12.3748L7.75 11.3248L10.575 14.1498L16.25 8.4748L17.3 9.5248L10.575 16.2498ZM15.25 21.2498V15.5248H16.75V18.7498C17.8167 17.8831 18.6667 16.8665 19.3 15.6998C19.9333 14.5331 20.25 13.2998 20.25 11.9998C20.25 9.7998 19.5833 7.92064 18.25 6.3623C16.9167 4.80397 15.25 3.8748 13.25 3.5748V2.0498C15.6833 2.3498 17.7083 3.4248 19.325 5.2748C20.9417 7.1248 21.75 9.36647 21.75 11.9998C21.75 13.4665 21.4042 14.8665 20.7125 16.1998C20.0208 17.5331 19.0917 18.7165 17.925 19.7498H20.975V21.2498H15.25Z" fill="#F2F2F2"/>
</svg>
