<svg width="24" height="24" viewBox="0 0 24 24" fill="none" xmlns="http://www.w3.org/2000/svg">
<path d="M4.72461 20.1373C3.68078 20.1373 2.79213 19.7658 2.05866 19.0229C1.32519 18.2799 0.943009 17.3804 0.912109 16.3242C0.912109 16.1706 0.920443 16.0158 0.937109 15.8599C0.953776 15.7039 0.980768 15.5489 1.01808 15.3949L3.11808 6.98893C3.35938 6.06103 3.85079 5.30795 4.59231 4.7297C5.33383 4.15144 6.17793 3.8623 7.12461 3.8623H16.8746C17.8213 3.8623 18.6654 4.15144 19.4069 4.7297C20.1484 5.30795 20.6418 6.06103 20.8871 6.98893L22.9871 15.3889C23.0204 15.5469 23.0496 15.7071 23.0746 15.8695C23.0996 16.0319 23.1121 16.1919 23.1121 16.3495C23.1121 17.4059 22.7367 18.3013 21.9859 19.0357C21.235 19.7701 20.3312 20.1373 19.2745 20.1373C18.5467 20.1373 17.8718 19.947 17.2499 19.5664C16.628 19.1858 16.161 18.6668 15.8491 18.0096L15.1491 16.5596C15.0777 16.4168 14.9711 16.3108 14.8293 16.2414C14.6875 16.172 14.536 16.1373 14.3746 16.1373H9.62461C9.46326 16.1373 9.31169 16.172 9.16991 16.2414C9.02811 16.3108 8.92153 16.4168 8.85016 16.5596L8.15016 18.0096C7.83819 18.6668 7.37109 19.1858 6.74886 19.5664C6.12663 19.947 5.45188 20.1373 4.72461 20.1373ZM4.79118 18.4341C5.18508 18.4341 5.54722 18.3289 5.87758 18.1187C6.20797 17.9084 6.46205 17.6255 6.63983 17.2699L7.33983 15.8449C7.55635 15.4006 7.86701 15.0544 8.27181 14.8062C8.67659 14.5581 9.12753 14.4341 9.62461 14.4341H14.3746C14.8715 14.4341 15.3213 14.5624 15.724 14.8191C16.1267 15.0758 16.4488 15.4177 16.6904 15.8449L17.3904 17.2699C17.5642 17.6255 17.8163 17.9084 18.1466 18.1187C18.477 18.3289 18.8385 18.4341 19.231 18.4341C19.8101 18.4341 20.3095 18.2359 20.7292 17.8395C21.149 17.4431 21.3672 16.9549 21.3839 16.3748C21.3839 16.2882 21.3589 16.0942 21.3089 15.7927L19.2089 7.41773C19.0795 6.88368 18.8006 6.44147 18.3722 6.0911C17.9437 5.74074 17.4445 5.56555 16.8746 5.56555H7.12461C6.56396 5.56555 6.06693 5.73645 5.63351 6.07823C5.20009 6.42 4.91904 6.8665 4.79036 7.41773L2.69036 15.7927C2.68168 15.8395 2.65668 16.0252 2.61536 16.3498C2.61536 16.9405 2.82842 17.4355 3.25453 17.8349C3.68065 18.2343 4.19287 18.4341 4.79118 18.4341ZM13.504 10.7498C13.7177 10.7498 13.8954 10.6775 14.0371 10.5329C14.1788 10.3883 14.2496 10.2092 14.2496 9.99543C14.2496 9.78168 14.1773 9.60397 14.0327 9.4623C13.8881 9.32064 13.709 9.2498 13.4952 9.2498C13.2815 9.2498 13.1038 9.3221 12.9621 9.46668C12.8204 9.61128 12.7496 9.79045 12.7496 10.0042C12.7496 10.2179 12.8219 10.3956 12.9665 10.5373C13.1111 10.679 13.2903 10.7498 13.504 10.7498ZM15.504 8.7498C15.7177 8.7498 15.8954 8.67751 16.0371 8.53293C16.1788 8.38833 16.2496 8.20916 16.2496 7.99543C16.2496 7.78168 16.1773 7.60397 16.0327 7.4623C15.8881 7.32064 15.709 7.2498 15.4952 7.2498C15.2815 7.2498 15.1038 7.3221 14.9621 7.46668C14.8204 7.61128 14.7496 7.79045 14.7496 8.00418C14.7496 8.21793 14.8219 8.39564 14.9665 8.5373C15.1111 8.67897 15.2903 8.7498 15.504 8.7498ZM15.504 12.7498C15.7177 12.7498 15.8954 12.6775 16.0371 12.5329C16.1788 12.3883 16.2496 12.2092 16.2496 11.9954C16.2496 11.7817 16.1773 11.604 16.0327 11.4623C15.8881 11.3206 15.709 11.2498 15.4952 11.2498C15.2815 11.2498 15.1038 11.3221 14.9621 11.4667C14.8204 11.6113 14.7496 11.7904 14.7496 12.0042C14.7496 12.2179 14.8219 12.3956 14.9665 12.5373C15.1111 12.679 15.2903 12.7498 15.504 12.7498ZM17.504 10.7498C17.7177 10.7498 17.8954 10.6775 18.0371 10.5329C18.1788 10.3883 18.2496 10.2092 18.2496 9.99543C18.2496 9.78168 18.1773 9.60397 18.0327 9.4623C17.8881 9.32064 17.709 9.2498 17.4952 9.2498C17.2815 9.2498 17.1038 9.3221 16.9621 9.46668C16.8204 9.61128 16.7496 9.79045 16.7496 10.0042C16.7496 10.2179 16.8219 10.3956 16.9665 10.5373C17.1111 10.679 17.2903 10.7498 17.504 10.7498ZM8.50251 12.3748C8.68391 12.3748 8.83294 12.3158 8.94961 12.1977C9.06628 12.0797 9.12461 11.9304 9.12461 11.7498V10.6248H10.2496C10.4302 10.6248 10.5795 10.5655 10.6975 10.4469C10.8156 10.3283 10.8746 10.1783 10.8746 9.9969C10.8746 9.8155 10.8156 9.66647 10.6975 9.5498C10.5795 9.43314 10.4302 9.3748 10.2496 9.3748H9.12461V8.2498C9.12461 8.06925 9.06531 7.91995 8.94671 7.80188C8.82809 7.68383 8.67809 7.6248 8.49671 7.6248C8.31531 7.6248 8.16628 7.68383 8.04961 7.80188C7.93294 7.91995 7.87461 8.06925 7.87461 8.2498V9.3748H6.74961C6.56906 9.3748 6.41975 9.4341 6.30168 9.5527C6.18363 9.67132 6.12461 9.82132 6.12461 10.0027C6.12461 10.1841 6.18363 10.3331 6.30168 10.4498C6.41975 10.5665 6.56906 10.6248 6.74961 10.6248H7.87461V11.7498C7.87461 11.9304 7.93391 12.0797 8.05251 12.1977C8.17113 12.3158 8.32113 12.3748 8.50251 12.3748Z" fill="#F2F2F2"/>
</svg>
