<svg width="24" height="24" viewBox="0 0 24 24" fill="none" xmlns="http://www.w3.org/2000/svg">
<path d="M12.2333 17.0752H13.7991V6.92518H10.1583V8.49093H12.2333V17.0752ZM4.55286 21.1496C4.09288 21.1496 3.694 20.9808 3.35623 20.643C3.01848 20.3052 2.84961 19.9064 2.84961 19.4464V4.55398C2.84961 4.09236 3.01848 3.69209 3.35623 3.35315C3.694 3.0142 4.09288 2.84473 4.55286 2.84473H19.4453C19.9069 2.84473 20.3072 3.0142 20.6461 3.35315C20.985 3.69209 21.1545 4.09236 21.1545 4.55398V19.4464C21.1545 19.9064 20.985 20.3052 20.6461 20.643C20.3072 20.9808 19.9069 21.1496 19.4453 21.1496H4.55286ZM4.55286 19.4464H19.4453V4.55398H4.55286V19.4464Z" fill="#F2F2F2"/>
</svg>
