<svg width="40" height="40" viewBox="0 0 40 40" fill="none" xmlns="http://www.w3.org/2000/svg">
<rect x="1" y="1" width="38" height="38" rx="19" fill="#FFD60A" fill-opacity="0.1"/>
<path d="M8.86914 28.0779L20.0007 8.84473L31.1322 28.0779H8.86914ZM11.7143 26.4344H28.2871L20.0007 12.1257L11.7143 26.4344ZM20.105 25.0632C20.3211 25.0632 20.5034 24.9875 20.6518 24.8361C20.8003 24.6847 20.8746 24.501 20.8746 24.2849C20.8746 24.0689 20.7989 23.8876 20.6475 23.7411C20.496 23.5946 20.3123 23.5214 20.0963 23.5214C19.8802 23.5214 19.698 23.5961 19.5495 23.7455C19.401 23.8949 19.3267 24.0777 19.3267 24.2937C19.3267 24.5097 19.4024 24.692 19.5539 24.8405C19.7053 24.989 19.889 25.0632 20.105 25.0632ZM19.3507 22.3002H20.8507V16.748H19.3507V22.3002Z" fill="#FFD60A"/>
<rect x="1" y="1" width="38" height="38" rx="19" stroke="url(#paint0_linear_913_3035)" stroke-width="2"/>
<defs>
<linearGradient id="paint0_linear_913_3035" x1="20" y1="0" x2="20" y2="40" gradientUnits="userSpaceOnUse">
<stop stop-color="#FFD60A"/>
<stop offset="1" stop-color="#FFD60A" stop-opacity="0"/>
</linearGradient>
</defs>
</svg>