<svg width="48" height="48" viewBox="0 0 48 48" fill="none" xmlns="http://www.w3.org/2000/svg">
<path d="M0 22.1435V10H2.5315V14.45H7.8V10H10.3315V22.1435H7.8V16.9935H2.5315V22.1435H0ZM15.8 22.1435V12.5435H12.3V10H21.8315V12.5435H18.3315V22.1435H15.8ZM23.8 22.1435V11.7699C23.8 11.244 23.9635 10.8176 24.2906 10.4906C24.6176 10.1635 25.0447 10 25.5718 10H35.5718C36.0955 10 36.5197 10.1635 36.8444 10.4906C37.1691 10.8176 37.3315 11.244 37.3315 11.7699V22.1435H34.8V12.5435H31.7718V20.0435H29.3718V12.5435H26.3315V22.1435H23.8ZM40.0283 22.1435V10H42.5718V19.6H48V22.1435H40.0283Z" fill="#FFD60A"/>
<path d="M20.7718 38.2871C20.2447 38.2871 19.8176 38.1235 19.4906 37.7965C19.1635 37.4695 19 37.0424 19 36.5153V34.2153H21.5435V35.7436H26.6V33.1653H20.7752C20.2791 33.1653 19.8593 32.9935 19.5156 32.6498C19.1719 32.3061 19 31.8859 19 31.3893V27.9196C19 27.3896 19.1635 26.9611 19.4906 26.6341C19.8176 26.3071 20.2447 26.1436 20.7718 26.1436H27.3718C27.8989 26.1436 28.3259 26.3071 28.653 26.6341C28.98 26.9611 29.1435 27.3882 29.1435 27.9153V30.2153H26.6V28.6871H21.5435V31.2653H27.3682C27.8643 31.2653 28.2843 31.4372 28.628 31.7809C28.9717 32.1246 29.1435 32.5447 29.1435 33.0414V36.511C29.1435 37.041 28.98 37.4695 28.653 37.7965C28.3259 38.1235 27.8989 38.2871 27.3718 38.2871H20.7718ZM33.7718 38.2871C33.2447 38.2871 32.8176 38.1235 32.4905 37.7965C32.1635 37.4695 32 37.0424 32 36.5153V34.2153H34.5435V35.7436H39.6V33.1653H33.7753C33.2792 33.1653 32.8592 32.9935 32.5155 32.6498C32.1718 32.3061 32 31.8859 32 31.3893V27.9196C32 27.3896 32.1635 26.9611 32.4905 26.6341C32.8176 26.3071 33.2447 26.1436 33.7718 26.1436H40.3718C40.8989 26.1436 41.3259 26.3071 41.653 26.6341C41.98 26.9611 42.1435 27.3882 42.1435 27.9153V30.2153H39.6V28.6871H34.5435V31.2653H40.3683C40.8644 31.2653 41.2843 31.4372 41.628 31.7809C41.9717 32.1246 42.1435 32.5447 42.1435 33.0414V36.511C42.1435 37.041 41.98 37.4695 41.653 37.7965C41.3259 38.1235 40.8989 38.2871 40.3718 38.2871H33.7718ZM7.77175 38.2871C7.24465 38.2871 6.81758 38.1235 6.49055 37.7965C6.16352 37.4695 6 37.0424 6 36.5153V27.9153C6 27.3882 6.16352 26.9611 6.49055 26.6341C6.81758 26.3071 7.24465 26.1436 7.77175 26.1436H14.3718C14.8989 26.1436 15.3259 26.3071 15.6529 26.6341C15.98 26.9611 16.1435 27.3882 16.1435 27.9153V30.2871H13.6V28.6871H8.5435V35.7436H13.6V34.1436H16.1435V36.512C16.1435 37.0381 15.98 37.4655 15.6529 37.7941C15.3259 38.1227 14.8989 38.2871 14.3718 38.2871H7.77175Z" fill="#FFD60A"/>
</svg>