<svg width="48" height="48" viewBox="0 0 48 48" fill="none" xmlns="http://www.w3.org/2000/svg">
<path d="M23.9496 44.1991C21.443 44.1991 19.0802 43.7244 16.861 42.7752C14.6418 41.8259 12.7079 40.529 11.0594 38.8844C9.41079 37.2399 8.10552 35.308 7.14356 33.0888C6.18162 30.8696 5.70066 28.4945 5.70066 25.9635C5.70066 23.4326 6.18162 21.0614 7.14356 18.8499C8.10552 16.6385 9.41079 14.7022 11.0594 13.0409C12.7079 11.3797 14.6418 10.0724 16.861 9.11918C19.0802 8.16591 21.443 7.68928 23.9496 7.68928C26.4561 7.68928 28.819 8.16591 31.0382 9.11918C33.2574 10.0724 35.1976 11.3797 36.8588 13.0409C38.52 14.7022 39.8273 16.6385 40.7806 18.8499C41.7338 21.0614 42.2105 23.4326 42.2105 25.9635C42.2105 28.4945 41.7338 30.8696 40.7806 33.0888C39.8273 35.308 38.52 37.2408 36.8587 38.8873C35.1974 40.5338 33.2571 41.8307 31.038 42.7781C28.8189 43.7254 26.4561 44.1991 23.9496 44.1991ZM29.9278 34.1719L32.1474 31.9523L25.6713 25.4763V16.0002H22.5278V26.7719L29.9278 34.1719ZM10.5681 4.26758L12.7757 6.47518L4.32456 14.6263L2.12891 12.4187L10.5681 4.26758ZM37.3311 4.26758L45.7822 12.4187L43.5746 14.6263L35.1235 6.47518L37.3311 4.26758ZM23.9496 40.7926C28.0843 40.7926 31.5918 39.3525 34.4719 36.4725C37.3519 33.5924 38.792 30.0849 38.792 25.9502C38.792 21.8154 37.3519 18.308 34.4719 15.4279C31.5918 12.5478 28.0843 11.1078 23.9496 11.1078C19.8148 11.1078 16.3074 12.5478 13.4273 15.4279C10.5472 18.308 9.10716 21.8154 9.10716 25.9502C9.10716 30.0849 10.5472 33.5924 13.4273 36.4725C16.3074 39.3525 19.8148 40.7926 23.9496 40.7926Z" fill="#FFD60A"/>
</svg>