<svg width="48" height="48" viewBox="0 0 48 48" fill="none" xmlns="http://www.w3.org/2000/svg">
<path d="M31.2283 21.4221C31.9943 21.4221 32.6477 21.1516 33.1887 20.6107C33.7296 20.0697 34.0001 19.4163 34.0001 18.6504C34.0001 17.8844 33.7296 17.231 33.1887 16.69C32.6477 16.1491 31.9943 15.8786 31.2283 15.8786C30.4624 15.8786 29.8109 16.1477 29.274 16.6858C28.737 17.2239 28.4686 17.8774 28.4686 18.6462C28.4686 19.4149 28.7369 20.0697 29.2735 20.6107C29.8101 21.1516 30.4617 21.4221 31.2283 21.4221ZM16.7718 21.4221C17.5378 21.4221 18.1892 21.153 18.7262 20.6149C19.2631 20.0768 19.5316 19.4233 19.5316 18.6546C19.5316 17.8858 19.2633 17.231 18.7267 16.69C18.19 16.1491 17.5384 15.8786 16.7718 15.8786C16.0059 15.8786 15.3524 16.1491 14.8115 16.69C14.2705 17.231 14.0001 17.8844 14.0001 18.6504C14.0001 19.4163 14.2705 20.0697 14.8115 20.6107C15.3524 21.1516 16.0059 21.4221 16.7718 21.4221ZM17.7001 31.1221H30.3501V28.5286H17.7001V31.1221ZM24.0007 44.2993C21.1938 44.2993 18.5557 43.7683 16.0865 42.7064C13.6173 41.6444 11.4667 40.1975 9.63487 38.3656C7.80297 36.5337 6.35604 34.3834 5.29407 31.9146C4.23214 29.4458 3.70117 26.808 3.70117 24.001C3.70117 21.194 4.23214 18.556 5.29407 16.0868C6.35604 13.6176 7.80234 11.4668 9.63297 9.6345C11.4636 7.8022 13.6136 6.35329 16.083 5.28775C18.5523 4.22222 21.1908 3.68945 23.9984 3.68945C26.8061 3.68945 29.4449 4.22192 31.9151 5.28685C34.3852 6.35175 36.5361 7.79982 38.3679 9.63105C40.1996 11.4623 41.648 13.613 42.7132 16.0832C43.7784 18.5534 44.311 21.1928 44.311 24.0014C44.311 26.8094 43.7782 29.448 42.7127 31.9171C41.6471 34.3861 40.1982 36.5361 38.3659 38.367C36.5336 40.1979 34.3831 41.6444 31.9143 42.7064C29.4456 43.7683 26.8077 44.2993 24.0007 44.2993ZM24.0001 40.8928C28.714 40.8928 32.7079 39.2558 35.9817 35.982C39.2556 32.7082 40.8925 28.7143 40.8925 24.0004C40.8925 19.2864 39.2556 15.2925 35.9817 12.0187C32.7079 8.74487 28.714 7.10795 24.0001 7.10795C19.2861 7.10795 15.2923 8.74487 12.0184 12.0187C8.74459 15.2925 7.10767 19.2864 7.10767 24.0004C7.10767 28.7143 8.74459 32.7082 12.0184 35.982C15.2923 39.2558 19.2861 40.8928 24.0001 40.8928Z" fill="#FFD60A"/>
</svg>