<svg width="48" height="48" viewBox="0 0 48 48" fill="none" xmlns="http://www.w3.org/2000/svg">
<path d="M31.3996 36.1311V29.2811H24.7861C23.9371 31.3398 22.5991 33.0201 20.7719 34.3219C18.9447 35.6237 16.6873 36.2746 13.9996 36.2746C10.5972 36.2746 7.70074 35.0791 5.31031 32.6881C2.91984 30.2971 1.72461 27.4 1.72461 23.9968C1.72461 20.5936 2.91984 17.6974 5.31031 15.3083C7.70074 12.9192 10.5972 11.7246 13.9996 11.7246C16.6873 11.7246 18.9447 12.3755 20.7719 13.6773C22.5991 14.9791 23.938 16.6594 24.7888 18.7181H37.6996V21.9811H22.5238C22.2888 20.5398 21.411 19.0159 19.8904 17.4094C18.3697 15.8029 16.4061 14.9996 13.9996 14.9996C11.4996 14.9996 9.37461 15.8746 7.62461 17.6246C5.87461 19.3746 4.99961 21.4996 4.99961 23.9996C4.99961 26.4996 5.87461 28.6246 7.62461 30.3746C9.37461 32.1246 11.4996 32.9996 13.9996 32.9996C16.4061 32.9996 18.3697 32.1963 19.8904 30.5898C21.411 28.9833 22.2858 27.4594 22.5146 26.0181H34.8746V32.8681H37.6996V36.1311H31.3996ZM13.9967 27.5311C15.0052 27.5311 15.8464 27.1935 16.5203 26.5184C17.1942 25.8432 17.5311 25.0046 17.5311 24.0026C17.5311 22.9941 17.1951 22.1529 16.5232 21.479C15.8513 20.8051 15.0131 20.4681 14.0086 20.4681C13.004 20.4681 12.1628 20.8041 11.4849 21.476C10.807 22.1479 10.4681 22.9862 10.4681 23.9907C10.4681 24.9952 10.8057 25.8364 11.4809 26.5143C12.156 27.1922 12.9946 27.5311 13.9967 27.5311ZM44.1224 36.1311C43.6576 36.1311 43.271 35.9742 42.9624 35.6603C42.6539 35.3464 42.4996 34.9574 42.4996 34.4934C42.4996 34.0293 42.6574 33.6424 42.9729 33.3327C43.2884 33.023 43.6794 32.8681 44.1458 32.8681C44.6122 32.8681 45.0003 33.0251 45.31 33.339C45.6197 33.6529 45.7746 34.0418 45.7746 34.5059C45.7746 34.9699 45.6163 35.3568 45.2996 35.6665C44.9829 35.9762 44.5905 36.1311 44.1224 36.1311ZM42.4996 29.9996V18.7181H45.7746V29.9996H42.4996Z" fill="#FFD60A"/>
</svg>